<?xml version="1.0" encoding="UTF-8"?>
<svg xmlns="http://www.w3.org/2000/svg" xmlns:xlink="http://www.w3.org/1999/xlink" width="30pt" height="30pt" viewBox="0 0 30 30" version="1.1">
<g id="surface1">
<path style=" stroke:none;fill-rule:nonzero;fill:rgb(23.137255%,34.901961%,59.607843%);fill-opacity:1;" d="M 15 0 C 19.140625 0 22.890625 1.679688 25.605469 4.394531 C 28.320312 7.109375 30 10.859375 30 15 C 30 19.140625 28.320312 22.890625 25.605469 25.605469 C 22.890625 28.320312 19.140625 30 15 30 C 10.859375 30 7.109375 28.320312 4.394531 25.605469 C 1.679688 22.890625 0 19.140625 0 15 C 0 10.859375 1.679688 7.109375 4.394531 4.394531 C 7.109375 1.679688 10.859375 0 15 0 Z M 16.484375 10.050781 L 18.960938 10.050781 L 18.960938 7.078125 L 16.484375 7.078125 C 14.574219 7.078125 13.019531 8.632812 13.019531 10.542969 L 13.019531 12.03125 L 11.039062 12.03125 L 11.039062 15 L 13.019531 15 L 13.019531 22.921875 L 15.988281 22.921875 L 15.988281 15 L 18.464844 15 L 18.960938 12.03125 L 15.988281 12.03125 L 15.988281 10.542969 C 15.988281 10.277344 16.214844 10.050781 16.484375 10.050781 Z M 24.597656 5.402344 C 22.140625 2.949219 18.746094 1.429688 15 1.429688 C 11.253906 1.429688 7.859375 2.949219 5.402344 5.402344 C 2.949219 7.859375 1.429688 11.253906 1.429688 15 C 1.429688 18.746094 2.949219 22.140625 5.402344 24.597656 C 7.859375 27.050781 11.253906 28.570312 15 28.570312 C 18.746094 28.570312 22.140625 27.050781 24.597656 24.597656 C 27.050781 22.140625 28.570312 18.746094 28.570312 15 C 28.570312 11.253906 27.050781 7.859375 24.597656 5.402344 Z M 24.597656 5.402344 "/>
</g>
</svg>
