<?xml version="1.0" encoding="UTF-8"?>
<svg xmlns="http://www.w3.org/2000/svg" xmlns:xlink="http://www.w3.org/1999/xlink" width="30pt" height="30pt" viewBox="0 0 30 30" version="1.1">
<g id="surface1">
<path style=" stroke:none;fill-rule:evenodd;fill:rgb(0%,0%,0%);fill-opacity:1;" d="M 15 0.375 C 6.71875 0.375 0 7.089844 0 15.375 C 0 22 4.296875 27.621094 10.257812 29.605469 C 11.007812 29.746094 11.285156 29.28125 11.285156 28.882812 C 11.285156 28.527344 11.269531 27.34375 11.261719 26.089844 C 7.089844 27 6.210938 24.320312 6.210938 24.320312 C 5.527344 22.585938 4.542969 22.125 4.542969 22.125 C 3.183594 21.195312 4.648438 21.214844 4.648438 21.214844 C 6.152344 21.320312 6.945312 22.757812 6.945312 22.757812 C 8.285156 25.050781 10.457031 24.390625 11.3125 24.007812 C 11.445312 23.035156 11.835938 22.375 12.265625 22 C 8.933594 21.621094 5.429688 20.335938 5.429688 14.585938 C 5.429688 12.949219 6.015625 11.609375 6.976562 10.5625 C 6.820312 10.183594 6.304688 8.65625 7.121094 6.59375 C 7.121094 6.59375 8.378906 6.1875 11.246094 8.128906 C 12.441406 7.796875 13.722656 7.632812 15 7.625 C 16.273438 7.632812 17.558594 7.796875 18.757812 8.128906 C 21.617188 6.191406 22.878906 6.59375 22.878906 6.59375 C 23.691406 8.660156 23.179688 10.183594 23.023438 10.5625 C 23.988281 11.609375 24.570312 12.949219 24.570312 14.585938 C 24.570312 20.347656 21.058594 21.613281 17.71875 21.988281 C 18.257812 22.453125 18.738281 23.363281 18.738281 24.761719 C 18.738281 26.769531 18.722656 28.386719 18.722656 28.878906 C 18.722656 29.277344 18.992188 29.746094 19.75 29.597656 C 25.707031 27.613281 30 21.992188 30 15.367188 C 30 7.085938 23.285156 0.367188 15 0.367188 Z M 15 0.375 "/>
</g>
</svg>
