<?xml version="1.0" standalone="no"?>
<!DOCTYPE svg PUBLIC "-//W3C//DTD SVG 20010904//EN"
 "http://www.w3.org/TR/2001/REC-SVG-20010904/DTD/svg10.dtd">
<svg version="1.0" xmlns="http://www.w3.org/2000/svg"
 width="45.000000pt" height="45.000000pt" viewBox="0 0 45.000000 45.000000"
 preserveAspectRatio="xMidYMid meet">

<g transform="translate(0.000000,45.000000) scale(0.100000,-0.100000)"
fill="#000000" stroke="none">
<path d="M152 437 c-113 -41 -176 -171 -140 -288 19 -64 104 -149 148 -149 5
0 10 11 10 25 0 19 -5 25 -22 25 -28 0 -37 7 -66 48 -27 38 -16 42 22 7 32
-30 52 -32 65 -7 8 16 4 20 -25 31 -44 16 -68 60 -60 110 4 20 9 53 13 74 5
36 7 38 32 33 40 -10 162 -13 167 -4 3 4 16 8 30 8 19 0 24 -5 24 -27 0 -15 5
-41 12 -59 19 -53 -4 -112 -51 -132 l-37 -16 4 -56 c3 -30 6 -57 8 -59 10 -11
69 27 103 65 65 74 78 162 37 250 -50 107 -168 159 -274 121z m173 -30 c60
-34 98 -95 103 -166 7 -94 -30 -171 -99 -207 l-29 -15 0 44 c0 37 4 46 24 55
43 19 59 54 52 119 -2 32 -7 67 -9 78 -3 11 -5 28 -6 39 -1 15 -6 17 -33 11
-18 -4 -64 -8 -103 -8 -38 0 -85 4 -102 8 -28 6 -33 4 -34 -11 -1 -11 -3 -28
-6 -39 -12 -58 -14 -135 -3 -155 9 -16 9 -20 1 -15 -7 4 -19 1 -27 -6 -23 -19
-29 -3 -29 81 0 71 3 82 30 122 59 84 183 114 270 65z m-175 -303 c0 -2 -7 -4
-15 -4 -8 0 -15 4 -15 10 0 5 7 7 15 4 8 -4 15 -8 15 -10z m-76 -20 c5 -14 4
-15 -9 -4 -17 14 -19 20 -6 20 5 0 12 -7 15 -16z"/>
</g>
</svg>
