<?xml version="1.0" encoding="UTF-8"?>
<svg xmlns="http://www.w3.org/2000/svg" xmlns:xlink="http://www.w3.org/1999/xlink" width="30pt" height="30pt" viewBox="0 0 30 30" version="1.1">
<defs>
<radialGradient id="radial0" gradientUnits="userSpaceOnUse" cx="158.429" cy="578.088" fx="158.429" fy="578.088" r="65" gradientTransform="matrix(0,-0.450436,0.419055,0,-234.174267,103.407321)">
<stop offset="0" style="stop-color:rgb(100%,86.666667%,33.333333%);stop-opacity:1;"/>
<stop offset="0.1" style="stop-color:rgb(100%,86.666667%,33.333333%);stop-opacity:1;"/>
<stop offset="0.5" style="stop-color:rgb(100%,32.941176%,24.313725%);stop-opacity:1;"/>
<stop offset="1" style="stop-color:rgb(78.431373%,21.568627%,67.058824%);stop-opacity:1;"/>
</radialGradient>
<radialGradient id="radial1" gradientUnits="userSpaceOnUse" cx="147.694" cy="473.455" fx="147.694" fy="473.455" r="65" gradientTransform="matrix(0.0395306,0.19743,-0.814021,0.162991,374.841368,-103.972077)">
<stop offset="0" style="stop-color:rgb(21.568627%,44.313725%,78.431373%);stop-opacity:1;"/>
<stop offset="0.128" style="stop-color:rgb(21.568627%,44.313725%,78.431373%);stop-opacity:1;"/>
<stop offset="1" style="stop-color:rgb(40%,0%,100%);stop-opacity:0;"/>
</radialGradient>
</defs>
<g id="surface1">
<path style=" stroke:none;fill-rule:nonzero;fill:url(#radial0);" d="M 15.007812 0.226562 C 8.839844 0.226562 7.035156 0.234375 6.683594 0.261719 C 5.417969 0.367188 4.628906 0.566406 3.773438 0.996094 C 3.109375 1.324219 2.589844 1.703125 2.074219 2.238281 C 1.136719 3.210938 0.570312 4.40625 0.363281 5.832031 C 0.261719 6.523438 0.234375 6.664062 0.226562 10.191406 C 0.226562 11.367188 0.226562 12.917969 0.226562 14.992188 C 0.226562 21.15625 0.234375 22.957031 0.265625 23.308594 C 0.367188 24.539062 0.558594 25.316406 0.96875 26.164062 C 1.75 27.785156 3.246094 29.003906 5.003906 29.457031 C 5.613281 29.617188 6.285156 29.703125 7.148438 29.742188 C 7.515625 29.757812 11.242188 29.769531 14.976562 29.769531 C 18.707031 29.769531 22.4375 29.765625 22.796875 29.746094 C 23.796875 29.699219 24.375 29.621094 25.019531 29.457031 C 26.789062 29 28.253906 27.800781 29.050781 26.152344 C 29.453125 25.328125 29.65625 24.523438 29.75 23.355469 C 29.769531 23.101562 29.777344 19.042969 29.777344 14.988281 C 29.777344 10.9375 29.769531 6.886719 29.75 6.628906 C 29.65625 5.445312 29.453125 4.644531 29.039062 3.804688 C 28.699219 3.113281 28.320312 2.597656 27.773438 2.070312 C 26.796875 1.136719 25.601562 0.570312 24.175781 0.363281 C 23.484375 0.261719 23.347656 0.234375 19.816406 0.226562 Z M 15.007812 0.226562 "/>
<path style=" stroke:none;fill-rule:nonzero;fill:url(#radial1);" d="M 15.007812 0.226562 C 8.839844 0.226562 7.035156 0.234375 6.683594 0.261719 C 5.417969 0.367188 4.628906 0.566406 3.773438 0.996094 C 3.109375 1.324219 2.589844 1.703125 2.074219 2.238281 C 1.136719 3.210938 0.570312 4.40625 0.363281 5.832031 C 0.261719 6.523438 0.234375 6.664062 0.226562 10.191406 C 0.226562 11.367188 0.226562 12.917969 0.226562 14.992188 C 0.226562 21.15625 0.234375 22.957031 0.265625 23.308594 C 0.367188 24.539062 0.558594 25.316406 0.96875 26.164062 C 1.75 27.785156 3.246094 29.003906 5.003906 29.457031 C 5.613281 29.617188 6.285156 29.703125 7.148438 29.742188 C 7.515625 29.757812 11.242188 29.769531 14.976562 29.769531 C 18.707031 29.769531 22.4375 29.765625 22.796875 29.746094 C 23.796875 29.699219 24.375 29.621094 25.019531 29.457031 C 26.789062 29 28.253906 27.800781 29.050781 26.152344 C 29.453125 25.328125 29.65625 24.523438 29.75 23.355469 C 29.769531 23.101562 29.777344 19.042969 29.777344 14.988281 C 29.777344 10.9375 29.769531 6.886719 29.75 6.628906 C 29.65625 5.445312 29.453125 4.644531 29.039062 3.804688 C 28.699219 3.113281 28.320312 2.597656 27.773438 2.070312 C 26.796875 1.136719 25.601562 0.570312 24.175781 0.363281 C 23.484375 0.261719 23.347656 0.234375 19.816406 0.226562 Z M 15.007812 0.226562 "/>
<path style=" stroke:none;fill-rule:nonzero;fill:rgb(100%,100%,100%);fill-opacity:1;" d="M 15 4.089844 C 12.039062 4.089844 11.664062 4.105469 10.503906 4.15625 C 9.339844 4.210938 8.546875 4.394531 7.855469 4.664062 C 7.136719 4.941406 6.527344 5.316406 5.921875 5.921875 C 5.316406 6.527344 4.941406 7.136719 4.664062 7.855469 C 4.394531 8.546875 4.207031 9.339844 4.15625 10.5 C 4.105469 11.664062 4.089844 12.039062 4.089844 15 C 4.089844 17.960938 4.105469 18.332031 4.15625 19.496094 C 4.210938 20.660156 4.394531 21.449219 4.664062 22.144531 C 4.941406 22.863281 5.316406 23.46875 5.921875 24.078125 C 6.527344 24.683594 7.136719 25.058594 7.851562 25.335938 C 8.546875 25.605469 9.339844 25.789062 10.5 25.84375 C 11.664062 25.894531 12.035156 25.910156 15 25.910156 C 17.960938 25.910156 18.332031 25.894531 19.496094 25.84375 C 20.65625 25.789062 21.449219 25.605469 22.144531 25.335938 C 22.863281 25.058594 23.46875 24.683594 24.078125 24.078125 C 24.683594 23.46875 25.054688 22.863281 25.335938 22.144531 C 25.605469 21.449219 25.789062 20.65625 25.84375 19.496094 C 25.894531 18.332031 25.90625 17.960938 25.90625 15 C 25.90625 12.039062 25.894531 11.664062 25.84375 10.503906 C 25.789062 9.339844 25.605469 8.546875 25.335938 7.855469 C 25.054688 7.136719 24.683594 6.527344 24.078125 5.921875 C 23.46875 5.316406 22.863281 4.941406 22.144531 4.664062 C 21.449219 4.394531 20.65625 4.210938 19.496094 4.15625 C 18.332031 4.105469 17.960938 4.089844 14.996094 4.089844 Z M 14.023438 6.058594 C 14.3125 6.054688 14.636719 6.058594 15 6.058594 C 17.914062 6.058594 18.257812 6.066406 19.410156 6.121094 C 20.472656 6.167969 21.050781 6.347656 21.433594 6.496094 C 21.941406 6.691406 22.304688 6.929688 22.6875 7.3125 C 23.070312 7.691406 23.304688 8.058594 23.503906 8.566406 C 23.652344 8.949219 23.832031 9.527344 23.878906 10.589844 C 23.933594 11.742188 23.941406 12.085938 23.941406 14.996094 C 23.941406 17.910156 23.933594 18.253906 23.878906 19.402344 C 23.832031 20.46875 23.652344 21.046875 23.503906 21.429688 C 23.304688 21.9375 23.070312 22.300781 22.6875 22.683594 C 22.304688 23.0625 21.941406 23.300781 21.433594 23.5 C 21.050781 23.648438 20.472656 23.824219 19.410156 23.875 C 18.257812 23.925781 17.914062 23.9375 15 23.9375 C 12.085938 23.9375 11.742188 23.925781 10.59375 23.875 C 9.527344 23.824219 8.953125 23.648438 8.566406 23.496094 C 8.058594 23.300781 7.695312 23.0625 7.3125 22.683594 C 6.929688 22.300781 6.695312 21.9375 6.496094 21.429688 C 6.347656 21.042969 6.167969 20.46875 6.121094 19.402344 C 6.066406 18.253906 6.058594 17.90625 6.058594 14.996094 C 6.058594 12.082031 6.066406 11.738281 6.121094 10.589844 C 6.167969 9.523438 6.347656 8.945312 6.496094 8.5625 C 6.695312 8.054688 6.929688 7.691406 7.3125 7.308594 C 7.695312 6.925781 8.058594 6.691406 8.566406 6.492188 C 8.953125 6.34375 9.527344 6.164062 10.59375 6.117188 C 11.597656 6.070312 11.988281 6.054688 14.023438 6.054688 Z M 20.824219 7.867188 C 20.101562 7.867188 19.515625 8.453125 19.515625 9.175781 C 19.515625 9.898438 20.101562 10.484375 20.824219 10.484375 C 21.546875 10.484375 22.132812 9.898438 22.132812 9.175781 C 22.132812 8.453125 21.546875 7.867188 20.824219 7.867188 Z M 15 9.398438 C 11.90625 9.398438 9.398438 11.90625 9.398438 15 C 9.398438 18.09375 11.90625 20.601562 15 20.601562 C 18.09375 20.601562 20.601562 18.09375 20.601562 15 C 20.601562 11.90625 18.09375 9.398438 15 9.398438 Z M 15 11.363281 C 17.007812 11.363281 18.636719 12.992188 18.636719 15 C 18.636719 17.007812 17.007812 18.636719 15 18.636719 C 12.992188 18.636719 11.363281 17.007812 11.363281 15 C 11.363281 12.992188 12.992188 11.363281 15 11.363281 Z M 15 11.363281 "/>
</g>
</svg>
