<?xml version="1.0" encoding="UTF-8"?>
<svg xmlns="http://www.w3.org/2000/svg" xmlns:xlink="http://www.w3.org/1999/xlink" width="30pt" height="29pt" viewBox="0 0 30 29" version="1.1">
<g id="surface1">
<path style=" stroke:none;fill-rule:evenodd;fill:rgb(3.921569%,40%,76.078431%);fill-opacity:1;" d="M 6.804688 0 L 23.195312 0 C 26.921875 0.0117188 29.9375 2.949219 29.949219 6.578125 L 29.949219 22.421875 C 29.933594 26.050781 26.917969 28.988281 23.195312 29 L 6.804688 29 C 3.082031 28.988281 0.0664062 26.050781 0.0507812 22.421875 L 0.0507812 6.578125 C 0.0625 2.949219 3.078125 0.0117188 6.804688 0 Z M 6.804688 0 "/>
<path style=" stroke:none;fill-rule:evenodd;fill:rgb(100%,100%,100%);fill-opacity:1;" d="M 12.019531 11.242188 L 15.796875 11.242188 L 15.796875 13.136719 L 15.851562 13.136719 C 16.378906 12.21875 17.664062 11.242188 19.582031 11.242188 C 23.570312 11.242188 24.308594 13.660156 24.308594 16.804688 L 24.308594 23.457031 L 20.371094 23.457031 L 20.371094 17.546875 C 20.371094 16.191406 20.339844 14.449219 18.320312 14.449219 C 16.300781 14.449219 15.957031 15.921875 15.957031 17.449219 L 15.957031 23.472656 L 12.019531 23.472656 Z M 9.785156 7.539062 C 9.785156 8.640625 8.867188 9.535156 7.734375 9.535156 C 6.605469 9.535156 5.6875 8.640625 5.6875 7.539062 C 5.6875 6.433594 6.605469 5.542969 7.734375 5.542969 C 8.867188 5.542969 9.78125 6.433594 9.785156 7.539062 Z M 5.691406 11.242188 L 9.785156 11.242188 L 9.785156 23.457031 L 5.691406 23.457031 Z M 5.691406 11.242188 "/>
</g>
</svg>
