<?xml version="1.0" encoding="UTF-8"?>
<svg xmlns="http://www.w3.org/2000/svg" xmlns:xlink="http://www.w3.org/1999/xlink" width="46pt" height="26pt" viewBox="0 0 46 26" version="1.1">
<g id="surface1">
<path style=" stroke:none;fill-rule:nonzero;fill:rgb(0%,0%,0%);fill-opacity:1;" d="M 35.566406 17.992188 L 33.929688 17.992188 C 33.90625 17.992188 33.878906 18.003906 33.863281 18.023438 C 33.84375 18.039062 33.832031 18.0625 33.832031 18.085938 L 33.832031 21.421875 C 33.835938 21.445312 33.84375 21.46875 33.863281 21.484375 C 33.882812 21.503906 33.90625 21.511719 33.929688 21.511719 L 35.566406 21.511719 C 35.589844 21.511719 35.613281 21.5 35.632812 21.484375 C 35.652344 21.46875 35.660156 21.445312 35.660156 21.421875 L 35.660156 18.085938 C 35.660156 18.0625 35.648438 18.039062 35.632812 18.023438 C 35.617188 18.003906 35.589844 17.992188 35.566406 17.992188 Z M 9.265625 9.484375 C 9.039062 9.480469 8.816406 9.539062 8.621094 9.648438 C 8.539062 9.699219 8.476562 9.773438 8.433594 9.855469 C 8.386719 9.960938 8.367188 10.074219 8.375 10.1875 C 8.441406 10.710938 8.652344 11.207031 8.984375 11.625 L 10.269531 13.585938 C 10.742188 14.390625 11.324219 15.132812 11.996094 15.789062 C 12.652344 16.402344 13.53125 16.746094 14.449219 16.746094 C 15.417969 16.765625 16.355469 16.40625 17.050781 15.75 C 17.746094 15.050781 18.339844 14.269531 18.824219 13.417969 L 20.261719 11.125 C 20.53125 10.53125 20.632812 10.132812 20.566406 9.90625 C 20.527344 9.765625 20.371094 9.695312 20.101562 9.6875 L 19.726562 9.6875 C 19.6875 9.691406 19.652344 9.691406 19.613281 9.6875 C 19.484375 9.691406 19.351562 9.6875 19.21875 9.667969 L 19.714844 7.535156 C 16.050781 8.097656 13.308594 5.464844 9.429688 7.011719 L 9.710938 9.5 C 9.5625 9.507812 9.414062 9.5 9.265625 9.480469 Z M 11.585938 20.175781 C 10.878906 19.402344 10.820312 18.585938 11.585938 17.722656 C 12.445312 17.941406 13.257812 18.304688 13.984375 18.800781 C 14.164062 18.742188 14.359375 18.730469 14.546875 18.757812 C 15.324219 18.214844 16.328125 18 17.199219 17.597656 C 18.234375 18.570312 18.125 19.464844 17.105469 20.296875 C 16.496094 20.160156 15.90625 19.949219 15.355469 19.664062 C 15.34375 19.832031 15.304688 19.992188 15.238281 20.148438 L 16.355469 23.9375 C 17.261719 22.144531 18.152344 20.378906 18.375 18.367188 C 18.003906 17.976562 17.632812 17.457031 17.328125 17.007812 L 17.0625 16.648438 C 16.308594 17.183594 15.394531 17.464844 14.460938 17.449219 C 13.433594 17.453125 12.445312 17.097656 11.675781 16.441406 L 11.675781 16.46875 C 11.554688 16.625 11.421875 16.828125 11.277344 17.019531 C 11.003906 17.410156 10.699219 17.839844 10.402344 18.203125 C 10.773438 20.539062 11.714844 22.183594 12.554688 23.945312 L 13.671875 20.15625 C 13.546875 19.972656 13.46875 19.757812 13.449219 19.535156 C 12.867188 19.847656 12.242188 20.074219 11.589844 20.203125 Z M 17.511719 16.273438 C 17.601562 16.398438 17.699219 16.542969 17.808594 16.691406 C 18.003906 16.972656 18.222656 17.28125 18.441406 17.566406 C 19.925781 18.816406 24.230469 19.074219 25.835938 19.9375 C 26.359375 20.210938 26.816406 20.582031 27.179688 21.035156 C 28.105469 22.21875 28.183594 23.152344 28.519531 24.601562 C 28.4375 25.441406 27.941406 25.929688 26.964844 26 L 1.71875 26 C 0.746094 25.929688 0.230469 25.445312 0.164062 24.601562 C 0.5 23.164062 0.578125 22.222656 1.507812 21.035156 C 1.871094 20.582031 2.328125 20.207031 2.851562 19.9375 C 4.371094 19.117188 8.320312 18.84375 10 17.75 C 10.257812 17.417969 10.53125 17.03125 10.777344 16.671875 C 10.925781 16.460938 11.066406 16.261719 11.183594 16.105469 C 11.203125 16.078125 11.226562 16.054688 11.253906 16.039062 C 10.648438 15.398438 10.113281 14.699219 9.660156 13.949219 L 8.378906 12 C 7.964844 11.480469 7.707031 10.859375 7.636719 10.207031 C 7.625 9.984375 7.667969 9.765625 7.757812 9.5625 C 7.855469 9.363281 8.007812 9.191406 8.199219 9.070312 C 8.296875 9.003906 8.402344 8.953125 8.511719 8.914062 C 8.429688 7.738281 8.414062 6.558594 8.472656 5.382812 C 8.5 5.113281 8.550781 4.84375 8.628906 4.582031 C 8.984375 3.46875 9.753906 2.519531 10.789062 1.921875 C 11.15625 1.695312 11.550781 1.507812 11.957031 1.363281 C 12.703125 1.105469 12.328125 0.0195312 13.152344 0 C 15.066406 -0.0429688 18.199219 1.523438 19.421875 2.796875 C 20.195312 3.632812 20.636719 4.707031 20.671875 5.828125 L 20.605469 9.035156 C 20.945312 9.121094 21.203125 9.378906 21.28125 9.707031 C 21.386719 10.097656 21.28125 10.648438 20.929688 11.398438 C 20.921875 11.410156 20.914062 11.421875 20.910156 11.4375 L 19.449219 13.757812 C 18.9375 14.664062 18.296875 15.5 17.550781 16.238281 L 17.523438 16.273438 Z M 24.921875 10.917969 L 30.605469 10.917969 L 30.605469 9.332031 C 30.605469 9.101562 30.699219 8.886719 30.863281 8.722656 C 31.03125 8.5625 31.257812 8.472656 31.496094 8.46875 L 38 8.46875 C 38.492188 8.472656 38.890625 8.855469 38.890625 9.332031 L 38.890625 10.90625 L 44.574219 10.90625 C 45.269531 10.910156 45.828125 11.449219 45.835938 12.117188 L 45.835938 15.074219 C 44.441406 16 42.964844 16.800781 41.417969 17.46875 C 39.90625 18.128906 38.324219 18.640625 36.703125 18.992188 L 36.703125 17.816406 C 36.707031 17.558594 36.597656 17.308594 36.40625 17.121094 C 36.21875 16.9375 35.957031 16.835938 35.6875 16.839844 L 33.796875 16.839844 C 33.527344 16.835938 33.269531 16.941406 33.078125 17.125 C 32.890625 17.308594 32.78125 17.558594 32.78125 17.816406 L 32.78125 18.964844 C 31.203125 18.613281 29.664062 18.113281 28.183594 17.46875 C 26.601562 16.78125 25.085938 15.949219 23.660156 14.988281 L 23.660156 12.117188 C 23.660156 11.796875 23.792969 11.488281 24.035156 11.265625 C 24.265625 11.035156 24.585938 10.90625 24.921875 10.90625 Z M 45.835938 16.8125 L 45.835938 24.785156 C 45.835938 25.105469 45.703125 25.414062 45.464844 25.640625 C 45.230469 25.871094 44.910156 26 44.574219 26 L 31.34375 26 C 31.402344 25.777344 31.441406 25.546875 31.460938 25.316406 C 31.480469 25.125 31.46875 24.925781 31.425781 24.738281 L 31.253906 23.953125 C 30.882812 22.3125 30.632812 21.082031 29.394531 19.488281 C 30.515625 19.878906 31.65625 20.195312 32.820312 20.4375 L 32.820312 21.699219 C 32.816406 21.960938 32.921875 22.210938 33.113281 22.394531 C 33.304688 22.578125 33.566406 22.679688 33.832031 22.675781 L 35.734375 22.675781 C 36.003906 22.679688 36.261719 22.578125 36.453125 22.394531 C 36.640625 22.210938 36.75 21.960938 36.746094 21.699219 L 36.746094 20.367188 L 36.746094 20.445312 C 38.597656 20.066406 40.402344 19.5 42.128906 18.75 C 43.414062 18.191406 44.65625 17.542969 45.847656 16.8125 Z M 37.332031 9.652344 L 32.175781 9.652344 C 32.148438 9.652344 32.117188 9.664062 32.097656 9.6875 C 32.078125 9.707031 32.066406 9.734375 32.066406 9.765625 L 32.066406 10.882812 L 37.429688 10.882812 L 37.429688 9.765625 C 37.433594 9.734375 37.417969 9.707031 37.398438 9.6875 C 37.375 9.664062 37.347656 9.652344 37.316406 9.652344 Z M 37.332031 9.652344 "/>
</g>
</svg>
